<?xml version="1.0" standalone="no"?>
<!DOCTYPE svg PUBLIC "-//W3C//DTD SVG 20010904//EN"
 "http://www.w3.org/TR/2001/REC-SVG-20010904/DTD/svg10.dtd">
<svg version="1.0" xmlns="http://www.w3.org/2000/svg"
 width="400.000000pt" height="400.000000pt" viewBox="0 0 400.000000 400.000000"
 preserveAspectRatio="xMidYMid meet">
<metadata>
Created by potrace 1.11, written by Peter Selinger 2001-2013
</metadata>
<g transform="translate(0.000000,400.000000) scale(0.100000,-0.100000)"
fill="#000000" stroke="none">
<path d="M2075 3139 c-549 -65 -958 -428 -1065 -944 -116 -561 128 -1103 610
-1354 201 -104 378 -145 630 -145 257 1 431 41 633 147 94 49 263 173 261 191
-1 4 -106 133 -234 287 l-233 278 -52 -47 c-97 -89 -204 -132 -330 -132 -140
0 -255 49 -346 148 -140 153 -170 399 -74 610 30 65 119 160 183 195 179 97
426 68 571 -68 l46 -43 233 280 c140 168 231 285 228 294 -16 42 -220 163
-371 219 -200 75 -482 109 -690 84z"/>
</g>
</svg>
