<?xml version="1.0" standalone="no"?>
<!DOCTYPE svg PUBLIC "-//W3C//DTD SVG 20010904//EN"
 "http://www.w3.org/TR/2001/REC-SVG-20010904/DTD/svg10.dtd">
<svg version="1.0" xmlns="http://www.w3.org/2000/svg"
 width="118.000000pt" height="118.000000pt" viewBox="0 0 118.000000 118.000000"
 preserveAspectRatio="xMidYMid meet">
<metadata>
Created by potrace 1.11, written by Peter Selinger 2001-2013
</metadata>
<g transform="translate(0.000000,118.000000) scale(0.100000,-0.100000)"
fill="#000000" stroke="none">
<path d="M0 590 l0 -590 590 0 590 0 0 590 0 590 -590 0 -590 0 0 -590z m820
436 c98 -26 97 -24 99 -158 1 -60 -2 -78 -13 -78 -20 0 -32 19 -46 70 -22 83
-116 140 -230 140 -112 0 -215 -71 -272 -188 -28 -57 -34 -79 -37 -157 -7
-194 67 -347 201 -414 129 -65 245 -33 338 95 53 70 75 72 67 6 -10 -83 -34
-128 -76 -145 -117 -47 -316 -49 -414 -4 -117 53 -202 150 -238 270 -17 55
-20 87 -17 165 5 123 35 190 124 278 132 132 311 174 514 120z"/>
</g>
</svg>
